<?xml version="1.0" encoding="utf-8"?>
<!-- Generator: Adobe Illustrator 28.0.0, SVG Export Plug-In . SVG Version: 6.00 Build 0)  -->
<svg version="1.1" id="Camada_1" xmlns="http://www.w3.org/2000/svg" xmlns:xlink="http://www.w3.org/1999/xlink" x="0px" y="0px"
	 viewBox="0 0 100 100" style="enable-background:new 0 0 100 100;" xml:space="preserve">
<style type="text/css">
	
		.st0{clip-path:url(#SVGID_00000003794738112037835370000001328986232428299177_);fill-rule:evenodd;clip-rule:evenodd;fill:#FFCC00;}
	
		.st1{clip-path:url(#SVGID_00000003794738112037835370000001328986232428299177_);fill-rule:evenodd;clip-rule:evenodd;fill:#004E26;}
	.st2{clip-path:url(#SVGID_00000003794738112037835370000001328986232428299177_);fill:#7A1711;}
	.st3{clip-path:url(#SVGID_00000003794738112037835370000001328986232428299177_);fill:#004E26;}
</style>
<g>
	<defs>
		<rect id="SVGID_1_" x="-1.85" y="13.34" width="103.69" height="73.32"/>
	</defs>
	<clipPath id="SVGID_00000028315875538636170100000003749360115823348611_">
		<use xlink:href="#SVGID_1_"  style="overflow:visible;"/>
	</clipPath>
	
		<path style="clip-path:url(#SVGID_00000028315875538636170100000003749360115823348611_);fill-rule:evenodd;clip-rule:evenodd;fill:#FFCC00;" d="
		M67.52,37.75c-0.09,0.37-0.19,1.1-0.28,1.76c-0.08,0.66-0.16,1.24,0.04,1.82c0.2,0.58,0.68,1.15,1.19,1.58
		c0.52,0.43,1.07,0.7,1.5,1c0.43,0.3,0.72,0.61,1.04,1.03c0.32,0.42,0.67,0.94,0.85,1.19c0.19,0.26,0.21,0.25,0.25,0.19
		c0.04-0.06,0.09-0.18,0.13-0.66c0.04-0.48,0.08-1.31,0.04-1.9c-0.04-0.59-0.14-0.93-0.32-1.32c-0.17-0.39-0.41-0.82-0.81-1.22
		c-0.4-0.41-0.96-0.79-1.41-1.12c-0.44-0.33-0.76-0.62-1.02-0.96c-0.26-0.34-0.44-0.74-0.59-1.05c-0.15-0.31-0.25-0.52-0.35-0.63
		C67.71,37.36,67.62,37.37,67.52,37.75"/>
	
		<path style="clip-path:url(#SVGID_00000028315875538636170100000003749360115823348611_);fill-rule:evenodd;clip-rule:evenodd;fill:#FFCC00;" d="
		M66.52,42.14c-0.08,0.38-0.14,1.11-0.19,1.77c-0.05,0.66-0.1,1.25,0.13,1.82c0.23,0.57,0.73,1.12,1.27,1.52
		c0.54,0.4,1.11,0.65,1.55,0.93c0.44,0.28,0.75,0.58,1.09,0.98c0.34,0.4,0.71,0.9,0.91,1.15c0.2,0.25,0.23,0.24,0.26,0.18
		c0.04-0.06,0.08-0.19,0.1-0.67c0.02-0.48,0.02-1.31-0.05-1.9c-0.06-0.59-0.19-0.93-0.38-1.3c-0.19-0.38-0.45-0.8-0.87-1.18
		c-0.42-0.39-1-0.74-1.46-1.05s-0.79-0.58-1.06-0.91c-0.27-0.33-0.48-0.72-0.64-1.02c-0.16-0.3-0.28-0.51-0.38-0.61
		C66.69,41.75,66.6,41.77,66.52,42.14"/>
	
		<path style="clip-path:url(#SVGID_00000028315875538636170100000003749360115823348611_);fill-rule:evenodd;clip-rule:evenodd;fill:#FFCC00;" d="
		M65.53,46.19c-0.06,0.38-0.1,1.12-0.13,1.78c-0.03,0.66-0.05,1.25,0.2,1.81c0.25,0.56,0.77,1.09,1.32,1.47
		c0.55,0.38,1.13,0.61,1.58,0.87c0.45,0.26,0.77,0.55,1.13,0.94c0.36,0.39,0.74,0.87,0.95,1.11c0.21,0.24,0.24,0.23,0.27,0.17
		c0.03-0.07,0.07-0.19,0.07-0.67c0-0.48-0.03-1.31-0.12-1.9c-0.09-0.58-0.22-0.92-0.43-1.29c-0.21-0.37-0.48-0.78-0.92-1.15
		c-0.43-0.37-1.03-0.7-1.5-1c-0.47-0.29-0.81-0.55-1.1-0.87c-0.28-0.32-0.51-0.7-0.68-0.99c-0.17-0.29-0.3-0.5-0.4-0.59
		C65.68,45.79,65.59,45.81,65.53,46.19"/>
	
		<path style="clip-path:url(#SVGID_00000028315875538636170100000003749360115823348611_);fill-rule:evenodd;clip-rule:evenodd;fill:#FFCC00;" d="
		M74.69,33.5c0.21,0.32,0.55,0.98,0.84,1.57c0.3,0.59,0.56,1.12,0.56,1.73c0,0.61-0.26,1.31-0.6,1.88
		c-0.35,0.57-0.78,1.02-1.09,1.44c-0.31,0.42-0.48,0.82-0.65,1.32c-0.17,0.5-0.32,1.1-0.41,1.41c-0.09,0.3-0.12,0.31-0.18,0.26
		c-0.06-0.05-0.14-0.14-0.34-0.58c-0.2-0.44-0.51-1.21-0.67-1.78c-0.16-0.57-0.17-0.93-0.14-1.35c0.04-0.42,0.12-0.91,0.37-1.42
		c0.25-0.52,0.65-1.06,0.96-1.52c0.31-0.46,0.52-0.84,0.64-1.24c0.13-0.41,0.17-0.85,0.21-1.19c0.04-0.34,0.07-0.58,0.12-0.71
		C74.39,33.2,74.47,33.18,74.69,33.5"/>
	
		<path style="clip-path:url(#SVGID_00000028315875538636170100000003749360115823348611_);fill-rule:evenodd;clip-rule:evenodd;fill:#004E26;" d="
		M80.25,39.7c-0.05,0.38-0.21,1.1-0.37,1.75c-0.16,0.65-0.3,1.22-0.69,1.68c-0.39,0.47-1.04,0.84-1.68,1.05
		c-0.63,0.21-1.26,0.27-1.76,0.4c-0.51,0.13-0.9,0.32-1.34,0.59c-0.45,0.28-0.96,0.64-1.22,0.81c-0.27,0.17-0.29,0.16-0.3,0.09
		c-0.01-0.07-0.02-0.2,0.12-0.66c0.13-0.46,0.4-1.25,0.64-1.79c0.24-0.54,0.47-0.82,0.77-1.12c0.3-0.3,0.68-0.61,1.2-0.85
		c0.52-0.24,1.18-0.39,1.71-0.54c0.53-0.15,0.93-0.31,1.3-0.53c0.36-0.23,0.68-0.53,0.93-0.77c0.25-0.23,0.42-0.4,0.55-0.46
		C80.21,39.28,80.29,39.32,80.25,39.7"/>
	
		<path style="clip-path:url(#SVGID_00000028315875538636170100000003749360115823348611_);fill-rule:evenodd;clip-rule:evenodd;fill:#004E26;" d="
		M79.58,43.76c-0.05,0.38-0.22,1.1-0.37,1.75c-0.16,0.65-0.3,1.22-0.69,1.68c-0.4,0.47-1.04,0.84-1.68,1.05
		c-0.63,0.21-1.26,0.27-1.76,0.4c-0.51,0.13-0.9,0.32-1.34,0.59c-0.45,0.28-0.96,0.64-1.22,0.81c-0.27,0.17-0.29,0.16-0.3,0.09
		c-0.01-0.07-0.01-0.2,0.12-0.66s0.4-1.25,0.64-1.79c0.24-0.54,0.47-0.82,0.77-1.12c0.3-0.3,0.68-0.61,1.2-0.85
		c0.52-0.24,1.18-0.39,1.71-0.54c0.53-0.15,0.93-0.31,1.3-0.53c0.36-0.23,0.68-0.53,0.93-0.77c0.25-0.23,0.42-0.4,0.55-0.46
		C79.54,43.34,79.62,43.38,79.58,43.76"/>
	
		<path style="clip-path:url(#SVGID_00000028315875538636170100000003749360115823348611_);fill-rule:evenodd;clip-rule:evenodd;fill:#004E26;" d="
		M79.1,48.01c-0.07,0.38-0.28,1.08-0.48,1.72c-0.2,0.63-0.37,1.19-0.8,1.64c-0.42,0.44-1.09,0.77-1.74,0.94
		c-0.65,0.17-1.27,0.19-1.78,0.29c-0.51,0.09-0.91,0.26-1.38,0.5c-0.47,0.25-0.99,0.57-1.27,0.73c-0.28,0.16-0.3,0.14-0.31,0.07
		c-0.01-0.07,0-0.2,0.16-0.65s0.48-1.23,0.75-1.75c0.28-0.52,0.52-0.79,0.84-1.07c0.32-0.28,0.72-0.57,1.25-0.77
		c0.53-0.2,1.2-0.32,1.75-0.43c0.54-0.12,0.95-0.25,1.33-0.45c0.37-0.21,0.71-0.49,0.97-0.71c0.26-0.22,0.45-0.37,0.58-0.42
		C79.1,47.58,79.17,47.63,79.1,48.01"/>
	<path style="clip-path:url(#SVGID_00000028315875538636170100000003749360115823348611_);fill:#7A1711;" d="M34.14,42.36h-1.06
		c-0.53-1.61-0.85-2.52-0.97-2.74c-0.12-0.21-0.28-0.36-0.5-0.45c-0.21-0.09-0.89-0.13-2.04-0.13h-1.11v10.69
		c0,1.33,0.05,2.13,0.14,2.4c0.05,0.15,0.16,0.26,0.34,0.35c0.18,0.09,0.87,0.24,2.08,0.45v0.85c-2.33-0.08-3.82-0.13-4.49-0.13
		c-0.9,0-2.28,0.04-4.13,0.13v-0.85c1.22-0.21,1.95-0.38,2.18-0.5c0.15-0.08,0.26-0.22,0.31-0.42c0.06-0.19,0.09-0.99,0.09-2.4
		V39.04h-1.92c-0.65,0-1.08,0.05-1.29,0.16c-0.21,0.11-0.38,0.3-0.52,0.58c-0.21,0.43-0.5,1.29-0.87,2.58h-1.04
		c0.13-1.12,0.21-1.9,0.24-2.32c0.03-0.43,0.06-1.26,0.1-2.5c3.02,0.08,5.98,0.12,8.86,0.1c2.44-0.02,4.2-0.06,5.27-0.1
		C33.8,39.02,33.92,40.62,34.14,42.36"/>
	<path style="clip-path:url(#SVGID_00000028315875538636170100000003749360115823348611_);fill:#7A1711;" d="M50.01,42.36h-1.06
		c-0.53-1.61-0.85-2.52-0.97-2.74c-0.12-0.21-0.28-0.36-0.5-0.45c-0.21-0.09-0.89-0.13-2.04-0.13h-1.11v10.69
		c0,1.33,0.05,2.13,0.14,2.4c0.05,0.15,0.16,0.26,0.34,0.35c0.18,0.09,0.87,0.24,2.08,0.45v0.85c-2.33-0.08-3.82-0.13-4.49-0.13
		c-0.9,0-2.28,0.04-4.13,0.13v-0.85c1.22-0.21,1.95-0.38,2.18-0.5c0.15-0.08,0.26-0.22,0.31-0.42c0.06-0.19,0.09-0.99,0.09-2.4
		V39.04h-1.92c-0.65,0-1.08,0.05-1.29,0.16c-0.21,0.11-0.38,0.3-0.52,0.58c-0.21,0.43-0.5,1.29-0.87,2.58h-1.04
		c0.13-1.12,0.21-1.9,0.24-2.32c0.03-0.43,0.06-1.26,0.1-2.5c3.02,0.08,5.98,0.12,8.86,0.1c2.44-0.02,4.2-0.06,5.27-0.1
		C49.67,39.02,49.78,40.62,50.01,42.36"/>
	<path style="clip-path:url(#SVGID_00000028315875538636170100000003749360115823348611_);fill:#7A1711;" d="M50.65,38.39v-0.85
		c2.53,0.08,4.4,0.13,5.6,0.13c3.16,0,5.92-0.04,8.28-0.13c0.05,1.69,0.15,3.2,0.31,4.51h-0.94l-0.11-0.35
		c-0.32-1.04-0.61-1.76-0.88-2.15c-0.11-0.16-0.28-0.28-0.49-0.35c-0.21-0.07-0.64-0.11-1.27-0.11h-4.38v5.53h1.99
		c0.77,0,1.25-0.04,1.45-0.11c0.19-0.08,0.35-0.21,0.46-0.4c0.18-0.3,0.37-0.92,0.58-1.88h0.95c-0.09,1.16-0.14,2.26-0.14,3.31
		c0,0.95,0.05,1.9,0.14,2.85h-0.95c-0.25-1.12-0.43-1.79-0.53-2.01c-0.08-0.16-0.21-0.27-0.37-0.34c-0.21-0.08-0.72-0.13-1.53-0.13
		h-2.06v5.13c0,0.62,0.04,1,0.11,1.16c0.07,0.15,0.2,0.26,0.37,0.33c0.28,0.12,0.9,0.24,1.85,0.35c0.12,0.01,0.3,0.03,0.54,0.07
		v0.85c-1.89-0.08-3.47-0.13-4.75-0.13c-1.28,0-2.69,0.04-4.22,0.13v-0.85c1.31-0.23,2.06-0.41,2.23-0.55
		c0.17-0.14,0.27-0.39,0.3-0.76c0.02-0.27,0.03-2.36,0.05-6.26v-3.09v-0.94c0-1.14-0.03-1.81-0.09-2.01
		c-0.06-0.21-0.15-0.35-0.29-0.44c-0.18-0.11-0.76-0.25-1.74-0.42C51.01,38.46,50.85,38.43,50.65,38.39"/>
	<path style="clip-path:url(#SVGID_00000028315875538636170100000003749360115823348611_);fill:#004E26;" d="M26.63,57.03v-0.15
		c0.37,0.01,0.66,0.02,0.87,0.02l0.67-0.01c0.2,0,0.36,0.02,0.47,0.06c0.12,0.04,0.21,0.12,0.28,0.23c0.07,0.11,0.11,0.25,0.11,0.41
		c0,0.26-0.09,0.47-0.26,0.64c-0.18,0.17-0.42,0.25-0.72,0.25c-0.09,0-0.21-0.01-0.35-0.03c0,0.36,0,0.56,0,0.62l0,0.15
		c0,0.13,0.01,0.2,0.03,0.23c0.03,0.04,0.16,0.08,0.37,0.1c0.02,0,0.06,0.01,0.11,0.01v0.15c-0.38-0.01-0.66-0.02-0.83-0.02
		c-0.2,0-0.45,0.01-0.75,0.02v-0.15c0.23-0.04,0.36-0.07,0.39-0.1c0.03-0.02,0.04-0.07,0.05-0.13c0.01-0.07,0.01-0.43,0.02-1.08
		l0-0.6c0-0.24-0.01-0.39-0.02-0.43c-0.01-0.04-0.03-0.07-0.05-0.09c-0.03-0.02-0.13-0.05-0.3-0.08
		C26.7,57.04,26.67,57.04,26.63,57.03 M27.7,58.23c0.08,0.01,0.15,0.01,0.21,0.01c0.15,0,0.27-0.05,0.36-0.14
		c0.09-0.09,0.13-0.24,0.13-0.44c0-0.18-0.04-0.31-0.13-0.4c-0.09-0.09-0.21-0.14-0.36-0.14c-0.06,0-0.13,0.01-0.21,0.02V58.23z"/>
	<path style="clip-path:url(#SVGID_00000028315875538636170100000003749360115823348611_);fill:#004E26;" d="M29.49,58.45
		l-0.18-0.02c0.04-0.19,0.06-0.36,0.07-0.5c0.24-0.12,0.5-0.18,0.76-0.18c0.15,0,0.28,0.02,0.37,0.07c0.09,0.05,0.15,0.12,0.19,0.2
		c0.03,0.09,0.05,0.22,0.05,0.4l-0.01,0.68c0,0.13,0.01,0.21,0.03,0.24c0.02,0.03,0.05,0.05,0.09,0.05c0.04,0,0.11-0.02,0.19-0.07
		l0.08,0.12c-0.18,0.13-0.31,0.21-0.4,0.25c-0.06,0.03-0.12,0.04-0.18,0.04c-0.08,0-0.14-0.02-0.2-0.06
		c-0.05-0.04-0.09-0.1-0.11-0.18c-0.16,0.11-0.27,0.18-0.34,0.21c-0.06,0.03-0.14,0.04-0.23,0.04c-0.14,0-0.25-0.05-0.34-0.14
		c-0.09-0.09-0.13-0.22-0.13-0.37c0-0.11,0.03-0.21,0.09-0.3c0.04-0.07,0.11-0.13,0.22-0.19l0.72-0.34c0-0.16-0.03-0.26-0.07-0.32
		C30.11,58.03,30.04,58,29.95,58c-0.09,0-0.18,0.03-0.25,0.09C29.63,58.15,29.56,58.27,29.49,58.45 M30.24,58.61
		c-0.22,0.1-0.36,0.19-0.42,0.25c-0.06,0.07-0.09,0.15-0.09,0.26c0,0.11,0.02,0.19,0.06,0.24c0.04,0.05,0.1,0.08,0.17,0.08
		c0.05,0,0.1-0.02,0.15-0.05c0.05-0.03,0.08-0.08,0.1-0.15c0.02-0.06,0.03-0.2,0.03-0.4C30.24,58.79,30.24,58.72,30.24,58.61"/>
	<path style="clip-path:url(#SVGID_00000028315875538636170100000003749360115823348611_);fill:#004E26;" d="M31.13,58.16v-0.14
		c0.18-0.04,0.32-0.08,0.44-0.12c0.12-0.04,0.23-0.09,0.35-0.16l0.1,0.06c-0.02,0.1-0.03,0.21-0.04,0.33
		c0.15-0.17,0.26-0.27,0.33-0.32c0.07-0.04,0.16-0.06,0.26-0.06c0.1,0,0.19,0.02,0.26,0.06c0.07,0.04,0.13,0.09,0.16,0.15
		c0.04,0.06,0.06,0.14,0.07,0.24c0.01,0.06,0.01,0.21,0.01,0.45l0,0.36c0,0.23,0,0.36,0.01,0.4c0.01,0.04,0.02,0.07,0.04,0.09
		c0.02,0.02,0.08,0.04,0.18,0.06c0.02,0,0.04,0.01,0.08,0.02v0.14c-0.22-0.01-0.39-0.02-0.52-0.02c-0.12,0-0.31,0.01-0.55,0.02
		v-0.14c0.1-0.03,0.16-0.05,0.19-0.07c0.02-0.02,0.04-0.05,0.04-0.1c0.01-0.07,0.01-0.29,0.01-0.66c0-0.26-0.01-0.42-0.03-0.48
		c-0.04-0.09-0.11-0.13-0.21-0.13c-0.07,0-0.14,0.03-0.2,0.08c-0.06,0.05-0.1,0.12-0.12,0.2c-0.02,0.08-0.03,0.26-0.03,0.55
		c0,0.25,0.01,0.41,0.02,0.47c0.01,0.03,0.02,0.06,0.04,0.07c0.02,0.02,0.08,0.04,0.19,0.07v0.14c-0.2-0.01-0.37-0.02-0.51-0.02
		c-0.13,0-0.31,0.01-0.56,0.02v-0.14c0.15-0.04,0.23-0.07,0.25-0.08c0.02-0.02,0.03-0.06,0.04-0.12c0.01-0.14,0.02-0.33,0.02-0.56
		c0-0.35,0-0.54-0.01-0.58c-0.02-0.06-0.06-0.09-0.12-0.09C31.26,58.15,31.21,58.15,31.13,58.16"/>
	<path style="clip-path:url(#SVGID_00000028315875538636170100000003749360115823348611_);fill:#004E26;" d="M33.47,58.15V58
		c0.3-0.05,0.56-0.15,0.78-0.28l0.1,0.05c-0.02,0.16-0.03,0.3-0.04,0.43C34.3,58.4,34.3,58.7,34.3,59.1c0,0.17,0.01,0.28,0.02,0.33
		c0.01,0.03,0.02,0.05,0.05,0.07c0.02,0.02,0.1,0.04,0.24,0.08v0.14c-0.18-0.01-0.35-0.02-0.51-0.02c-0.15,0-0.36,0.01-0.64,0.02
		v-0.14l0.05-0.01c0.12-0.03,0.19-0.05,0.21-0.07c0.02-0.02,0.03-0.05,0.04-0.1c0.01-0.13,0.02-0.39,0.02-0.78
		c0-0.23-0.01-0.36-0.02-0.4c-0.02-0.05-0.05-0.07-0.11-0.07C33.59,58.13,33.53,58.14,33.47,58.15 M34.05,56.81
		c0.09,0,0.17,0.03,0.23,0.09c0.06,0.06,0.09,0.14,0.09,0.23s-0.03,0.17-0.09,0.23c-0.06,0.06-0.14,0.09-0.23,0.09
		c-0.09,0-0.17-0.03-0.23-0.09c-0.06-0.06-0.09-0.14-0.09-0.23s0.03-0.17,0.09-0.23C33.88,56.84,33.96,56.81,34.05,56.81"/>
	<path style="clip-path:url(#SVGID_00000028315875538636170100000003749360115823348611_);fill:#004E26;" d="M36.33,57.43
		l-0.17-0.01c-0.03-0.18-0.07-0.29-0.12-0.34c-0.05-0.05-0.11-0.08-0.18-0.08c-0.09,0-0.16,0.04-0.21,0.12
		c-0.05,0.08-0.08,0.26-0.08,0.54c0,0.02,0,0.08,0,0.17l0.2,0.01c0.1,0,0.21-0.01,0.33-0.03l0.03,0.05
		c-0.05,0.07-0.09,0.15-0.13,0.23c-0.14-0.02-0.28-0.03-0.43-0.03l0.01,1.13l0,0.11c0,0.09,0.02,0.15,0.05,0.18
		c0.03,0.03,0.11,0.06,0.23,0.08c0.02,0,0.04,0.01,0.08,0.01v0.14c-0.31-0.01-0.53-0.02-0.66-0.02c-0.16,0-0.34,0.01-0.54,0.02
		v-0.14c0.15-0.04,0.23-0.07,0.25-0.1c0.02-0.03,0.04-0.11,0.04-0.24c0.01-0.13,0.01-0.53,0.01-1.18c-0.1,0-0.2,0.01-0.29,0.02
		v-0.14c0.1-0.04,0.2-0.09,0.29-0.14c0-0.2,0.01-0.33,0.02-0.37c0.02-0.1,0.06-0.19,0.13-0.27c0.08-0.11,0.19-0.19,0.33-0.26
		c0.14-0.07,0.28-0.1,0.44-0.1c0.16,0,0.33,0.03,0.5,0.09c-0.03,0.1-0.05,0.18-0.06,0.23L36.33,57.43z"/>
	<path style="clip-path:url(#SVGID_00000028315875538636170100000003749360115823348611_);fill:#004E26;" d="M36.15,58.15V58
		c0.3-0.05,0.56-0.15,0.78-0.28l0.1,0.05c-0.02,0.16-0.03,0.3-0.04,0.43c-0.01,0.19-0.01,0.48-0.01,0.89c0,0.17,0.01,0.28,0.02,0.33
		c0.01,0.03,0.02,0.05,0.05,0.07c0.02,0.02,0.1,0.04,0.24,0.08v0.14c-0.18-0.01-0.35-0.02-0.51-0.02c-0.15,0-0.36,0.01-0.64,0.02
		v-0.14l0.05-0.01c0.12-0.03,0.19-0.05,0.21-0.07c0.02-0.02,0.03-0.05,0.04-0.1c0.01-0.13,0.02-0.39,0.02-0.78
		c0-0.23-0.01-0.36-0.02-0.4c-0.02-0.05-0.05-0.07-0.11-0.07C36.28,58.13,36.22,58.14,36.15,58.15 M36.73,56.81
		c0.09,0,0.17,0.03,0.23,0.09c0.06,0.06,0.09,0.14,0.09,0.23s-0.03,0.17-0.09,0.23c-0.06,0.06-0.14,0.09-0.23,0.09
		c-0.09,0-0.17-0.03-0.23-0.09c-0.06-0.06-0.09-0.14-0.09-0.23s0.03-0.17,0.09-0.23C36.57,56.84,36.64,56.81,36.73,56.81"/>
	<path style="clip-path:url(#SVGID_00000028315875538636170100000003749360115823348611_);fill:#004E26;" d="M39.01,58.46
		l-0.18-0.01c-0.01-0.19-0.05-0.32-0.12-0.39c-0.06-0.07-0.15-0.11-0.24-0.11c-0.12,0-0.22,0.05-0.29,0.14
		c-0.1,0.13-0.15,0.31-0.15,0.54c0,0.24,0.05,0.42,0.16,0.55c0.11,0.12,0.23,0.19,0.38,0.19c0.07,0,0.13-0.01,0.2-0.03
		c0.07-0.02,0.15-0.06,0.26-0.12l0.09,0.15c-0.22,0.17-0.38,0.28-0.49,0.33c-0.1,0.05-0.21,0.07-0.33,0.07
		c-0.24,0-0.43-0.08-0.59-0.25c-0.16-0.17-0.23-0.39-0.23-0.67c0-0.3,0.09-0.56,0.27-0.78c0.18-0.22,0.44-0.33,0.76-0.33
		c0.19,0,0.39,0.05,0.61,0.15c-0.03,0.11-0.05,0.23-0.08,0.38C39.03,58.35,39.02,58.41,39.01,58.46"/>
	<path style="clip-path:url(#SVGID_00000028315875538636170100000003749360115823348611_);fill:#004E26;" d="M39.63,58.45
		l-0.18-0.02c0.04-0.19,0.06-0.36,0.07-0.5c0.24-0.12,0.5-0.18,0.76-0.18c0.15,0,0.28,0.02,0.37,0.07c0.09,0.05,0.15,0.12,0.19,0.2
		c0.03,0.09,0.05,0.22,0.05,0.4l-0.01,0.68c0,0.13,0.01,0.21,0.03,0.24c0.02,0.03,0.05,0.05,0.09,0.05c0.04,0,0.11-0.02,0.19-0.07
		l0.08,0.12c-0.18,0.13-0.31,0.21-0.4,0.25c-0.06,0.03-0.12,0.04-0.18,0.04c-0.08,0-0.14-0.02-0.2-0.06
		c-0.05-0.04-0.09-0.1-0.11-0.18c-0.16,0.11-0.27,0.18-0.34,0.21c-0.06,0.03-0.14,0.04-0.23,0.04c-0.14,0-0.25-0.05-0.34-0.14
		c-0.09-0.09-0.13-0.22-0.13-0.37c0-0.11,0.03-0.21,0.09-0.3c0.04-0.07,0.11-0.13,0.22-0.19l0.72-0.34c0-0.16-0.03-0.26-0.07-0.32
		C40.25,58.03,40.18,58,40.09,58c-0.09,0-0.18,0.03-0.25,0.09C39.77,58.15,39.7,58.27,39.63,58.45 M40.38,58.61
		c-0.22,0.1-0.36,0.19-0.42,0.25c-0.06,0.07-0.09,0.15-0.09,0.26c0,0.11,0.02,0.19,0.06,0.24c0.04,0.05,0.1,0.08,0.17,0.08
		c0.05,0,0.1-0.02,0.15-0.05c0.05-0.03,0.08-0.08,0.1-0.15c0.02-0.06,0.03-0.2,0.03-0.4C40.38,58.79,40.38,58.72,40.38,58.61"/>
	<path style="clip-path:url(#SVGID_00000028315875538636170100000003749360115823348611_);fill:#004E26;" d="M42.89,58.46
		l-0.18-0.01c-0.01-0.19-0.05-0.32-0.12-0.39c-0.06-0.07-0.15-0.11-0.24-0.11c-0.12,0-0.22,0.05-0.29,0.14
		c-0.1,0.13-0.15,0.31-0.15,0.54c0,0.24,0.05,0.42,0.16,0.55c0.11,0.12,0.23,0.19,0.38,0.19c0.07,0,0.13-0.01,0.2-0.03
		c0.07-0.02,0.15-0.06,0.26-0.12l0.09,0.15c-0.22,0.17-0.38,0.28-0.49,0.33c-0.1,0.05-0.21,0.07-0.33,0.07
		c-0.24,0-0.43-0.08-0.59-0.25c-0.16-0.17-0.23-0.39-0.23-0.67c0-0.3,0.09-0.56,0.27-0.78c0.18-0.22,0.44-0.33,0.76-0.33
		c0.19,0,0.39,0.05,0.61,0.15c-0.03,0.11-0.05,0.23-0.08,0.38C42.91,58.35,42.9,58.41,42.89,58.46 M42.14,59.69h0.16
		c-0.04,0.07-0.09,0.14-0.14,0.21c0.06,0,0.1,0.02,0.14,0.06c0.04,0.04,0.06,0.09,0.06,0.16c0,0.1-0.04,0.18-0.12,0.25
		c-0.11,0.08-0.27,0.12-0.5,0.12c-0.03,0-0.07,0-0.13,0v-0.15c0.16,0,0.27-0.02,0.33-0.06c0.04-0.03,0.06-0.06,0.06-0.11
		c0-0.02-0.01-0.04-0.02-0.06s-0.03-0.02-0.05-0.02c-0.01,0-0.04,0-0.07,0.01l-0.03-0.09c0.06-0.04,0.1-0.08,0.13-0.11
		C42.01,59.87,42.06,59.8,42.14,59.69"/>
	<path style="clip-path:url(#SVGID_00000028315875538636170100000003749360115823348611_);fill:#004E26;" d="M43.5,58.45l-0.18-0.02
		c0.04-0.19,0.06-0.36,0.07-0.5c0.24-0.12,0.5-0.18,0.76-0.18c0.15,0,0.28,0.02,0.37,0.07c0.09,0.05,0.15,0.12,0.19,0.2
		c0.03,0.09,0.05,0.22,0.05,0.4l-0.01,0.68c0,0.13,0.01,0.21,0.03,0.24c0.02,0.03,0.05,0.05,0.09,0.05c0.04,0,0.11-0.02,0.19-0.07
		l0.08,0.12c-0.18,0.13-0.31,0.21-0.4,0.25c-0.06,0.03-0.12,0.04-0.18,0.04c-0.08,0-0.14-0.02-0.2-0.06
		c-0.05-0.04-0.09-0.1-0.11-0.18c-0.16,0.11-0.27,0.18-0.34,0.21c-0.06,0.03-0.14,0.04-0.23,0.04c-0.14,0-0.25-0.05-0.34-0.14
		c-0.09-0.09-0.13-0.22-0.13-0.37c0-0.11,0.03-0.21,0.09-0.3c0.04-0.07,0.11-0.13,0.22-0.19l0.72-0.34c0-0.16-0.03-0.26-0.07-0.32
		C44.13,58.03,44.06,58,43.97,58c-0.09,0-0.18,0.03-0.25,0.09C43.65,58.15,43.58,58.27,43.5,58.45 M44.6,56.99h0.18
		c-0.05,0.2-0.11,0.34-0.19,0.43c-0.06,0.06-0.13,0.09-0.21,0.09c-0.07,0-0.18-0.03-0.34-0.09c-0.16-0.06-0.26-0.09-0.3-0.09
		c-0.03,0-0.06,0.01-0.09,0.04c-0.03,0.02-0.06,0.08-0.09,0.15h-0.18c0.04-0.19,0.11-0.33,0.19-0.42c0.06-0.07,0.13-0.1,0.2-0.1
		c0.04,0,0.08,0.01,0.12,0.02c0.04,0.01,0.13,0.04,0.26,0.1c0.13,0.05,0.23,0.08,0.28,0.08c0.03,0,0.06-0.01,0.08-0.03
		S44.57,57.08,44.6,56.99 M44.25,58.61c-0.22,0.1-0.36,0.19-0.42,0.25c-0.06,0.07-0.09,0.15-0.09,0.26c0,0.11,0.02,0.19,0.06,0.24
		c0.04,0.05,0.1,0.08,0.17,0.08c0.05,0,0.1-0.02,0.15-0.05c0.05-0.03,0.08-0.08,0.1-0.15c0.02-0.06,0.03-0.2,0.03-0.4
		C44.25,58.79,44.25,58.72,44.25,58.61"/>
	<path style="clip-path:url(#SVGID_00000028315875538636170100000003749360115823348611_);fill:#004E26;" d="M45.25,58.72
		c0-0.3,0.09-0.53,0.27-0.72c0.18-0.18,0.43-0.27,0.73-0.27c0.3,0,0.54,0.08,0.71,0.25c0.17,0.17,0.25,0.4,0.25,0.7
		c0,0.34-0.09,0.61-0.27,0.79c-0.18,0.19-0.42,0.28-0.73,0.28c-0.31,0-0.55-0.09-0.71-0.26C45.33,59.32,45.25,59.06,45.25,58.72
		 M45.85,58.62c0,0.37,0.05,0.64,0.16,0.81c0.06,0.09,0.15,0.14,0.26,0.14c0.1,0,0.18-0.04,0.24-0.12c0.08-0.12,0.12-0.32,0.12-0.6
		c0-0.36-0.05-0.62-0.15-0.77c-0.06-0.1-0.15-0.14-0.26-0.14c-0.1,0-0.18,0.04-0.24,0.12C45.89,58.16,45.85,58.35,45.85,58.62"/>
	<path style="clip-path:url(#SVGID_00000028315875538636170100000003749360115823348611_);fill:#004E26;" d="M50.49,58.01v-0.13
		c0.16,0.01,0.31,0.02,0.45,0.02c0.12,0,0.29-0.01,0.5-0.02v0.14c-0.11,0.01-0.19,0.04-0.25,0.06c-0.05,0.03-0.1,0.07-0.14,0.11
		c-0.03,0.03-0.08,0.11-0.15,0.23c-0.09,0.17-0.2,0.33-0.31,0.49c0.11,0.13,0.21,0.22,0.32,0.27c0.1,0.06,0.19,0.09,0.27,0.09
		c0.05,0,0.1-0.01,0.15-0.03c0.05-0.02,0.11-0.06,0.19-0.12l0.11,0.14c-0.19,0.18-0.35,0.32-0.49,0.39
		c-0.09,0.05-0.17,0.07-0.25,0.07c-0.1,0-0.2-0.03-0.31-0.08c-0.11-0.06-0.23-0.16-0.37-0.3c-0.19,0.15-0.34,0.26-0.47,0.31
		c-0.13,0.05-0.27,0.07-0.44,0.07c-0.25,0-0.45-0.07-0.58-0.2c-0.14-0.13-0.21-0.3-0.21-0.5c0-0.13,0.03-0.25,0.1-0.36
		c0.06-0.12,0.15-0.21,0.26-0.3c0.11-0.08,0.28-0.18,0.51-0.29c-0.07-0.15-0.12-0.27-0.15-0.35c-0.02-0.08-0.03-0.16-0.03-0.23
		c0-0.2,0.07-0.37,0.21-0.5c0.14-0.13,0.34-0.19,0.59-0.19c0.18,0,0.32,0.04,0.41,0.12c0.09,0.08,0.13,0.19,0.13,0.33
		c0,0.14-0.04,0.27-0.13,0.38c-0.08,0.11-0.23,0.23-0.44,0.36c0.17,0.31,0.33,0.55,0.48,0.74c0.08-0.11,0.14-0.22,0.18-0.32
		c0.04-0.1,0.06-0.18,0.06-0.25c0-0.04-0.01-0.07-0.03-0.09C50.62,58.06,50.57,58.04,50.49,58.01 M49.45,58.27
		c-0.13,0.07-0.21,0.14-0.27,0.21c-0.08,0.11-0.11,0.22-0.11,0.35c0,0.14,0.05,0.26,0.16,0.37c0.1,0.11,0.22,0.16,0.35,0.16
		c0.08,0,0.16-0.01,0.23-0.04c0.07-0.03,0.15-0.07,0.24-0.13c-0.11-0.14-0.21-0.26-0.28-0.37C49.72,58.74,49.61,58.56,49.45,58.27
		 M49.87,57.83c0.1-0.07,0.16-0.13,0.2-0.19c0.05-0.09,0.08-0.19,0.08-0.29c0-0.11-0.02-0.19-0.07-0.25
		c-0.05-0.06-0.11-0.09-0.17-0.09c-0.06,0-0.11,0.02-0.15,0.07c-0.04,0.05-0.06,0.12-0.06,0.21c0,0.06,0.01,0.13,0.03,0.2
		C49.75,57.56,49.8,57.67,49.87,57.83"/>
	<path style="clip-path:url(#SVGID_00000028315875538636170100000003749360115823348611_);fill:#004E26;" d="M55.5,59.16l0.1,0.19
		c-0.23,0.15-0.44,0.26-0.64,0.32c-0.19,0.06-0.4,0.09-0.61,0.09c-0.45,0-0.8-0.13-1.06-0.38c-0.26-0.26-0.39-0.6-0.39-1.03
		c0-0.46,0.14-0.83,0.44-1.11c0.29-0.28,0.69-0.42,1.2-0.42c0.16,0,0.32,0.01,0.47,0.04c0.15,0.03,0.34,0.07,0.57,0.14
		c-0.01,0.09-0.01,0.18-0.01,0.27c0,0.16,0.01,0.36,0.03,0.59h-0.22c-0.07-0.26-0.11-0.41-0.13-0.45c-0.05-0.1-0.13-0.18-0.24-0.25
		c-0.11-0.07-0.26-0.1-0.46-0.1c-0.29,0-0.52,0.09-0.67,0.27c-0.19,0.21-0.29,0.51-0.29,0.89c0,0.39,0.1,0.69,0.29,0.89
		c0.19,0.2,0.45,0.31,0.77,0.31C54.93,59.41,55.22,59.33,55.5,59.16"/>
	<path style="clip-path:url(#SVGID_00000028315875538636170100000003749360115823348611_);fill:#004E26;" d="M55.97,58.72
		c0-0.3,0.09-0.53,0.27-0.72c0.18-0.18,0.43-0.27,0.73-0.27c0.3,0,0.54,0.08,0.71,0.25c0.17,0.17,0.25,0.4,0.25,0.7
		c0,0.34-0.09,0.61-0.27,0.79c-0.18,0.19-0.42,0.28-0.73,0.28c-0.31,0-0.55-0.09-0.71-0.26C56.06,59.32,55.97,59.06,55.97,58.72
		 M56.57,58.62c0,0.37,0.05,0.64,0.16,0.81c0.06,0.09,0.15,0.14,0.26,0.14c0.1,0,0.18-0.04,0.24-0.12c0.08-0.12,0.12-0.32,0.12-0.6
		c0-0.36-0.05-0.62-0.15-0.77c-0.06-0.1-0.15-0.14-0.26-0.14c-0.1,0-0.18,0.04-0.24,0.12C56.61,58.16,56.57,58.35,56.57,58.62"/>
	<path style="clip-path:url(#SVGID_00000028315875538636170100000003749360115823348611_);fill:#004E26;" d="M58.13,58.16v-0.14
		c0.18-0.04,0.32-0.08,0.44-0.12c0.12-0.04,0.23-0.09,0.35-0.16l0.1,0.06c-0.02,0.1-0.03,0.21-0.04,0.33
		c0.15-0.17,0.26-0.27,0.33-0.32c0.07-0.04,0.16-0.06,0.26-0.06c0.1,0,0.19,0.02,0.26,0.06c0.07,0.04,0.13,0.09,0.16,0.15
		c0.04,0.06,0.06,0.14,0.07,0.24c0.01,0.06,0.01,0.21,0.01,0.45l0,0.36c0,0.23,0,0.36,0.01,0.4c0.01,0.04,0.02,0.07,0.04,0.09
		c0.02,0.02,0.08,0.04,0.18,0.06c0.02,0,0.04,0.01,0.08,0.02v0.14c-0.22-0.01-0.39-0.02-0.52-0.02c-0.12,0-0.31,0.01-0.55,0.02
		v-0.14c0.1-0.03,0.17-0.05,0.19-0.07c0.02-0.02,0.04-0.05,0.04-0.1c0.01-0.07,0.01-0.29,0.01-0.66c0-0.26-0.01-0.42-0.03-0.48
		c-0.04-0.09-0.11-0.13-0.21-0.13c-0.07,0-0.14,0.03-0.2,0.08c-0.06,0.05-0.1,0.12-0.12,0.2c-0.02,0.08-0.03,0.26-0.03,0.55
		c0,0.25,0.01,0.41,0.02,0.47c0.01,0.03,0.02,0.06,0.04,0.07c0.02,0.02,0.08,0.04,0.19,0.07v0.14c-0.2-0.01-0.37-0.02-0.51-0.02
		c-0.13,0-0.31,0.01-0.56,0.02v-0.14c0.15-0.04,0.23-0.07,0.25-0.08c0.02-0.02,0.03-0.06,0.04-0.12c0.01-0.14,0.02-0.33,0.02-0.56
		c0-0.35,0-0.54-0.01-0.58c-0.02-0.06-0.06-0.09-0.12-0.09C58.26,58.15,58.2,58.15,58.13,58.16"/>
	<path style="clip-path:url(#SVGID_00000028315875538636170100000003749360115823348611_);fill:#004E26;" d="M62.05,57.43
		l-0.17-0.01c-0.03-0.18-0.07-0.29-0.12-0.34c-0.05-0.05-0.11-0.08-0.18-0.08c-0.09,0-0.16,0.04-0.21,0.12
		c-0.05,0.08-0.08,0.26-0.08,0.54c0,0.02,0,0.08,0,0.17l0.2,0.01c0.1,0,0.21-0.01,0.33-0.03l0.03,0.05
		c-0.05,0.07-0.09,0.15-0.13,0.23c-0.14-0.02-0.28-0.03-0.43-0.03l0.01,1.13l0,0.11c0,0.09,0.02,0.15,0.05,0.18
		c0.03,0.03,0.11,0.06,0.23,0.08c0.02,0,0.04,0.01,0.08,0.01v0.14c-0.31-0.01-0.53-0.02-0.66-0.02c-0.16,0-0.34,0.01-0.54,0.02
		v-0.14c0.15-0.04,0.23-0.07,0.25-0.1c0.02-0.03,0.04-0.11,0.04-0.24c0.01-0.13,0.01-0.53,0.01-1.18c-0.1,0-0.2,0.01-0.29,0.02
		v-0.14c0.1-0.04,0.2-0.09,0.29-0.14c0-0.2,0.01-0.33,0.02-0.37c0.02-0.1,0.06-0.19,0.13-0.27c0.08-0.11,0.19-0.19,0.33-0.26
		c0.14-0.07,0.28-0.1,0.44-0.1c0.16,0,0.33,0.03,0.5,0.09c-0.03,0.1-0.05,0.18-0.06,0.23L62.05,57.43z"/>
	<path style="clip-path:url(#SVGID_00000028315875538636170100000003749360115823348611_);fill:#004E26;" d="M63.5,59.17l0.1,0.15
		c-0.21,0.18-0.4,0.31-0.58,0.39c-0.08,0.03-0.17,0.05-0.29,0.05c-0.25,0-0.44-0.07-0.57-0.22c-0.17-0.18-0.25-0.43-0.25-0.73
		c0-0.32,0.09-0.58,0.28-0.77c0.19-0.2,0.42-0.3,0.7-0.3c0.26,0,0.44,0.08,0.56,0.23c0.08,0.1,0.12,0.26,0.14,0.47
		c-0.07,0.04-0.13,0.09-0.19,0.15c-0.14-0.01-0.28-0.01-0.43-0.01c-0.19,0-0.36,0-0.53,0.01c0,0.03,0,0.05,0,0.07
		c0,0.19,0.04,0.35,0.13,0.5c0.09,0.14,0.21,0.21,0.39,0.21c0.08,0,0.16-0.01,0.24-0.04C63.29,59.3,63.39,59.25,63.5,59.17
		 M62.47,58.38c0.07,0,0.14,0,0.18,0c0.11,0,0.25-0.01,0.42-0.02c-0.01-0.17-0.04-0.28-0.08-0.34c-0.05-0.06-0.12-0.08-0.2-0.08
		c-0.08,0-0.15,0.03-0.21,0.1C62.51,58.11,62.48,58.23,62.47,58.38"/>
	<path style="clip-path:url(#SVGID_00000028315875538636170100000003749360115823348611_);fill:#004E26;" d="M63.79,58.15V58
		c0.3-0.05,0.56-0.15,0.78-0.28l0.1,0.05c-0.02,0.16-0.03,0.3-0.04,0.43c-0.01,0.19-0.01,0.48-0.01,0.89c0,0.17,0.01,0.28,0.02,0.33
		c0.01,0.03,0.02,0.05,0.05,0.07c0.02,0.02,0.1,0.04,0.24,0.08v0.14c-0.18-0.01-0.35-0.02-0.51-0.02c-0.15,0-0.36,0.01-0.64,0.02
		v-0.14l0.05-0.01c0.12-0.03,0.19-0.05,0.21-0.07c0.02-0.02,0.03-0.05,0.04-0.1c0.01-0.13,0.02-0.39,0.02-0.78
		c0-0.23-0.01-0.36-0.02-0.4c-0.02-0.05-0.05-0.07-0.11-0.07C63.91,58.13,63.85,58.14,63.79,58.15 M64.37,56.81
		c0.09,0,0.17,0.03,0.23,0.09c0.06,0.06,0.09,0.14,0.09,0.23s-0.03,0.17-0.09,0.23c-0.06,0.06-0.14,0.09-0.23,0.09
		c-0.09,0-0.17-0.03-0.23-0.09c-0.06-0.06-0.09-0.14-0.09-0.23s0.03-0.17,0.09-0.23C64.2,56.84,64.28,56.81,64.37,56.81"/>
	<path style="clip-path:url(#SVGID_00000028315875538636170100000003749360115823348611_);fill:#004E26;" d="M66.37,57.82l0.03,0.03
		c-0.04,0.07-0.08,0.15-0.11,0.23c-0.14-0.01-0.3-0.03-0.46-0.03l-0.01,0.24l-0.01,0.27l-0.01,0.27c0,0.25,0.02,0.41,0.06,0.48
		c0.04,0.06,0.1,0.1,0.16,0.1c0.05,0,0.14-0.03,0.25-0.08l0.07,0.14c-0.2,0.12-0.33,0.19-0.4,0.22c-0.09,0.03-0.17,0.05-0.26,0.05
		c-0.12,0-0.22-0.04-0.3-0.12c-0.07-0.08-0.11-0.19-0.11-0.35l0.01-0.46l0.02-0.76l-0.16,0c-0.01,0-0.06,0-0.12,0V57.9
		c0.13-0.05,0.25-0.12,0.35-0.22c0.11-0.1,0.22-0.25,0.32-0.46h0.18c-0.04,0.22-0.06,0.42-0.06,0.6c0.12,0,0.19,0,0.21,0
		C66.08,57.83,66.19,57.82,66.37,57.82"/>
	<path style="clip-path:url(#SVGID_00000028315875538636170100000003749360115823348611_);fill:#004E26;" d="M66.84,58.45
		l-0.18-0.02c0.04-0.19,0.06-0.36,0.07-0.5c0.24-0.12,0.5-0.18,0.76-0.18c0.15,0,0.28,0.02,0.37,0.07c0.09,0.05,0.15,0.12,0.19,0.2
		c0.03,0.09,0.05,0.22,0.05,0.4l-0.01,0.68c0,0.13,0.01,0.21,0.03,0.24c0.02,0.03,0.05,0.05,0.09,0.05c0.04,0,0.11-0.02,0.19-0.07
		l0.08,0.12c-0.18,0.13-0.31,0.21-0.4,0.25c-0.06,0.03-0.12,0.04-0.18,0.04c-0.08,0-0.14-0.02-0.2-0.06
		c-0.05-0.04-0.09-0.1-0.11-0.18c-0.16,0.11-0.27,0.18-0.34,0.21c-0.06,0.03-0.14,0.04-0.23,0.04c-0.14,0-0.25-0.05-0.34-0.14
		c-0.09-0.09-0.13-0.22-0.13-0.37c0-0.11,0.03-0.21,0.09-0.3c0.04-0.07,0.11-0.13,0.22-0.19l0.72-0.34c0-0.16-0.03-0.26-0.07-0.32
		C67.46,58.03,67.39,58,67.3,58c-0.09,0-0.18,0.03-0.25,0.09C66.98,58.15,66.91,58.27,66.84,58.45 M67.59,58.61
		c-0.22,0.1-0.36,0.19-0.42,0.25s-0.09,0.15-0.09,0.26c0,0.11,0.02,0.19,0.06,0.24c0.04,0.05,0.1,0.08,0.17,0.08
		c0.05,0,0.1-0.02,0.15-0.05c0.05-0.03,0.08-0.08,0.1-0.15c0.02-0.06,0.03-0.2,0.03-0.4C67.59,58.79,67.59,58.72,67.59,58.61"/>
	<path style="clip-path:url(#SVGID_00000028315875538636170100000003749360115823348611_);fill:#004E26;" d="M68.48,58.16v-0.14
		c0.33-0.07,0.59-0.16,0.79-0.27l0.1,0.05c-0.02,0.14-0.04,0.29-0.04,0.46c0.14-0.21,0.24-0.34,0.3-0.39
		c0.06-0.05,0.14-0.07,0.23-0.07c0.06,0,0.13,0.02,0.2,0.05c-0.04,0.17-0.07,0.34-0.1,0.52h-0.14c-0.01-0.05-0.02-0.09-0.05-0.12
		c-0.03-0.03-0.06-0.04-0.1-0.04c-0.06,0-0.11,0.03-0.17,0.08c-0.08,0.08-0.13,0.19-0.16,0.31c-0.02,0.06-0.02,0.17-0.02,0.32
		c0,0.27,0,0.43,0.01,0.47c0.01,0.04,0.02,0.07,0.04,0.09c0.02,0.02,0.1,0.04,0.22,0.07c0.02,0,0.04,0.01,0.08,0.02v0.14
		c-0.25-0.01-0.46-0.02-0.61-0.02c-0.17,0-0.36,0.01-0.57,0.02v-0.14c0.16-0.03,0.25-0.07,0.27-0.11c0.03-0.06,0.05-0.33,0.05-0.82
		c0-0.26-0.01-0.41-0.03-0.44c-0.02-0.04-0.06-0.05-0.11-0.05C68.62,58.15,68.56,58.15,68.48,58.16"/>
	<path style="clip-path:url(#SVGID_00000028315875538636170100000003749360115823348611_);fill:#004E26;" d="M70.09,58.15V58
		c0.3-0.05,0.56-0.15,0.78-0.28l0.1,0.05c-0.02,0.16-0.03,0.3-0.04,0.43c-0.01,0.19-0.01,0.48-0.01,0.89c0,0.17,0.01,0.28,0.02,0.33
		c0.01,0.03,0.02,0.05,0.05,0.07c0.02,0.02,0.1,0.04,0.24,0.08v0.14c-0.18-0.01-0.35-0.02-0.51-0.02c-0.15,0-0.36,0.01-0.64,0.02
		v-0.14l0.05-0.01c0.12-0.03,0.19-0.05,0.21-0.07c0.02-0.02,0.03-0.05,0.04-0.1c0.01-0.13,0.02-0.39,0.02-0.78
		c0-0.23-0.01-0.36-0.02-0.4c-0.02-0.05-0.05-0.07-0.11-0.07C70.21,58.13,70.16,58.14,70.09,58.15 M70.67,56.81
		c0.09,0,0.17,0.03,0.23,0.09c0.06,0.06,0.09,0.14,0.09,0.23s-0.03,0.17-0.09,0.23c-0.06,0.06-0.14,0.09-0.23,0.09
		c-0.09,0-0.17-0.03-0.23-0.09c-0.06-0.06-0.09-0.14-0.09-0.23s0.03-0.17,0.09-0.23C70.5,56.84,70.58,56.81,70.67,56.81"/>
	<path style="clip-path:url(#SVGID_00000028315875538636170100000003749360115823348611_);fill:#004E26;" d="M71.73,58.45
		l-0.18-0.02c0.04-0.19,0.06-0.36,0.07-0.5c0.24-0.12,0.5-0.18,0.76-0.18c0.15,0,0.28,0.02,0.37,0.07c0.09,0.05,0.15,0.12,0.19,0.2
		c0.03,0.09,0.05,0.22,0.05,0.4l-0.01,0.68c0,0.13,0.01,0.21,0.03,0.24c0.02,0.03,0.05,0.05,0.09,0.05c0.04,0,0.11-0.02,0.19-0.07
		l0.08,0.12c-0.18,0.13-0.31,0.21-0.4,0.25c-0.06,0.03-0.12,0.04-0.18,0.04c-0.08,0-0.14-0.02-0.2-0.06
		c-0.05-0.04-0.09-0.1-0.11-0.18c-0.16,0.11-0.27,0.18-0.34,0.21c-0.06,0.03-0.14,0.04-0.23,0.04c-0.14,0-0.25-0.05-0.34-0.14
		c-0.09-0.09-0.13-0.22-0.13-0.37c0-0.11,0.03-0.21,0.09-0.3c0.04-0.07,0.11-0.13,0.22-0.19l0.72-0.34c0-0.16-0.03-0.26-0.07-0.32
		C72.36,58.03,72.29,58,72.2,58c-0.09,0-0.18,0.03-0.25,0.09C71.88,58.15,71.81,58.27,71.73,58.45 M72.48,58.61
		c-0.22,0.1-0.36,0.19-0.42,0.25c-0.06,0.07-0.09,0.15-0.09,0.26c0,0.11,0.02,0.19,0.06,0.24c0.04,0.05,0.1,0.08,0.17,0.08
		c0.05,0,0.1-0.02,0.15-0.05c0.05-0.03,0.08-0.08,0.1-0.15c0.02-0.06,0.03-0.2,0.03-0.4C72.48,58.79,72.48,58.72,72.48,58.61"/>
	
		<path style="clip-path:url(#SVGID_00000028315875538636170100000003749360115823348611_);fill-rule:evenodd;clip-rule:evenodd;fill:#004E26;" d="
		M88.75,45.61c0.85,1.39,1.31,2.84,1.31,4.34C90.06,59.36,72.12,67,50,67S9.94,59.36,9.94,49.95c0-1.5,0.46-2.96,1.31-4.34
		c-0.45,0.98-0.69,1.99-0.69,3.02c0,8.94,17.66,16.19,39.44,16.19c21.78,0,39.44-7.25,39.44-16.19
		C89.44,47.59,89.2,46.58,88.75,45.61"/>
</g>
</svg>
